<mxfile host="app.diagrams.net" modified="2022-03-02T02:55:48.698Z" agent="5.0 (Windows NT 10.0; Win64; x64) AppleWebKit/537.36 (KHTML, like Gecko) Chrome/98.0.4758.102 Safari/537.36" etag="z7ysa0UCrXIMbvbH2Jfq" version="16.6.4" type="github">
  <diagram id="E85EOLbCybWtKjVj0bJy" name="Page-1">
    <mxGraphModel dx="1851" dy="571" grid="1" gridSize="10" guides="1" tooltips="1" connect="1" arrows="1" fold="1" page="1" pageScale="1" pageWidth="827" pageHeight="1169" math="0" shadow="0">
      <root>
        <mxCell id="0" />
        <mxCell id="1" parent="0" />
        <mxCell id="wu3eYTekcn9bL-O-NrDp-38" style="edgeStyle=orthogonalEdgeStyle;rounded=0;orthogonalLoop=1;jettySize=auto;html=1;entryX=0.5;entryY=0;entryDx=0;entryDy=0;" edge="1" parent="1" source="wu3eYTekcn9bL-O-NrDp-36" target="wu3eYTekcn9bL-O-NrDp-37">
          <mxGeometry relative="1" as="geometry" />
        </mxCell>
        <mxCell id="wu3eYTekcn9bL-O-NrDp-42" value="" style="edgeStyle=orthogonalEdgeStyle;rounded=0;orthogonalLoop=1;jettySize=auto;html=1;" edge="1" parent="1" source="wu3eYTekcn9bL-O-NrDp-36" target="wu3eYTekcn9bL-O-NrDp-41">
          <mxGeometry relative="1" as="geometry" />
        </mxCell>
        <mxCell id="wu3eYTekcn9bL-O-NrDp-36" value="&lt;font style=&quot;vertical-align: inherit&quot;&gt;&lt;font style=&quot;vertical-align: inherit&quot;&gt;首页&lt;/font&gt;&lt;/font&gt;" style="rounded=0;whiteSpace=wrap;html=1;" vertex="1" parent="1">
          <mxGeometry x="270" y="20" width="120" height="60" as="geometry" />
        </mxCell>
        <mxCell id="wu3eYTekcn9bL-O-NrDp-40" value="" style="edgeStyle=orthogonalEdgeStyle;rounded=0;orthogonalLoop=1;jettySize=auto;html=1;" edge="1" parent="1" source="wu3eYTekcn9bL-O-NrDp-36" target="wu3eYTekcn9bL-O-NrDp-39">
          <mxGeometry relative="1" as="geometry" />
        </mxCell>
        <mxCell id="wu3eYTekcn9bL-O-NrDp-44" value="" style="edgeStyle=orthogonalEdgeStyle;rounded=0;orthogonalLoop=1;jettySize=auto;html=1;entryX=0.5;entryY=0;entryDx=0;entryDy=0;" edge="1" parent="1" source="wu3eYTekcn9bL-O-NrDp-37" target="wu3eYTekcn9bL-O-NrDp-43">
          <mxGeometry relative="1" as="geometry">
            <Array as="points">
              <mxPoint x="155" y="190" />
              <mxPoint y="190" />
            </Array>
          </mxGeometry>
        </mxCell>
        <mxCell id="wu3eYTekcn9bL-O-NrDp-50" style="edgeStyle=orthogonalEdgeStyle;rounded=0;orthogonalLoop=1;jettySize=auto;html=1;exitX=0.5;exitY=1;exitDx=0;exitDy=0;entryX=0.5;entryY=0;entryDx=0;entryDy=0;" edge="1" parent="1" source="wu3eYTekcn9bL-O-NrDp-37" target="wu3eYTekcn9bL-O-NrDp-46">
          <mxGeometry relative="1" as="geometry">
            <Array as="points">
              <mxPoint x="155" y="190" />
              <mxPoint x="290" y="190" />
            </Array>
          </mxGeometry>
        </mxCell>
        <mxCell id="wu3eYTekcn9bL-O-NrDp-37" value="&lt;font style=&quot;vertical-align: inherit&quot;&gt;&lt;font style=&quot;vertical-align: inherit&quot;&gt;寄件&lt;/font&gt;&lt;/font&gt;" style="rounded=0;whiteSpace=wrap;html=1;" vertex="1" parent="1">
          <mxGeometry x="100" y="130" width="110" height="40" as="geometry" />
        </mxCell>
        <mxCell id="wu3eYTekcn9bL-O-NrDp-39" value="&lt;font style=&quot;vertical-align: inherit&quot;&gt;&lt;font style=&quot;vertical-align: inherit&quot;&gt;&lt;font style=&quot;vertical-align: inherit&quot;&gt;&lt;font style=&quot;vertical-align: inherit&quot;&gt;&lt;font style=&quot;vertical-align: inherit&quot;&gt;&lt;font style=&quot;vertical-align: inherit&quot;&gt;近期物流&lt;/font&gt;&lt;/font&gt;&lt;/font&gt;&lt;/font&gt;&lt;/font&gt;&lt;/font&gt;" style="rounded=0;whiteSpace=wrap;html=1;" vertex="1" parent="1">
          <mxGeometry x="270" y="130" width="120" height="50" as="geometry" />
        </mxCell>
        <mxCell id="wu3eYTekcn9bL-O-NrDp-41" value="&lt;font style=&quot;vertical-align: inherit&quot;&gt;&lt;font style=&quot;vertical-align: inherit&quot;&gt;&lt;font style=&quot;vertical-align: inherit&quot;&gt;&lt;font style=&quot;vertical-align: inherit&quot;&gt;扫码寄件&lt;/font&gt;&lt;/font&gt;&lt;/font&gt;&lt;/font&gt;" style="rounded=0;whiteSpace=wrap;html=1;" vertex="1" parent="1">
          <mxGeometry x="440" y="130" width="120" height="60" as="geometry" />
        </mxCell>
        <mxCell id="wu3eYTekcn9bL-O-NrDp-43" value="&lt;font style=&quot;vertical-align: inherit&quot;&gt;&lt;font style=&quot;vertical-align: inherit&quot;&gt;寄件信息&lt;/font&gt;&lt;/font&gt;" style="rounded=0;whiteSpace=wrap;html=1;" vertex="1" parent="1">
          <mxGeometry x="-60" y="230" width="120" height="60" as="geometry" />
        </mxCell>
        <mxCell id="wu3eYTekcn9bL-O-NrDp-45" value="&lt;font style=&quot;vertical-align: inherit&quot;&gt;&lt;font style=&quot;vertical-align: inherit&quot;&gt;&lt;font style=&quot;vertical-align: inherit&quot;&gt;&lt;font style=&quot;vertical-align: inherit&quot;&gt;收件信息&lt;/font&gt;&lt;/font&gt;&lt;/font&gt;&lt;/font&gt;" style="rounded=0;whiteSpace=wrap;html=1;" vertex="1" parent="1">
          <mxGeometry x="95" y="230" width="120" height="60" as="geometry" />
        </mxCell>
        <mxCell id="wu3eYTekcn9bL-O-NrDp-46" value="&lt;font style=&quot;vertical-align: inherit&quot;&gt;&lt;font style=&quot;vertical-align: inherit&quot;&gt;&lt;font style=&quot;vertical-align: inherit&quot;&gt;&lt;font style=&quot;vertical-align: inherit&quot;&gt;快递公司等快递信息、服务协议、运费归属、取件时间等&lt;/font&gt;&lt;/font&gt;&lt;/font&gt;&lt;/font&gt;" style="rounded=0;whiteSpace=wrap;html=1;" vertex="1" parent="1">
          <mxGeometry x="230" y="230" width="120" height="60" as="geometry" />
        </mxCell>
        <mxCell id="wu3eYTekcn9bL-O-NrDp-47" value="&lt;font style=&quot;vertical-align: inherit&quot;&gt;&lt;font style=&quot;vertical-align: inherit&quot;&gt;寄件人信息、选择寄件地址&lt;/font&gt;&lt;/font&gt;" style="rounded=0;whiteSpace=wrap;html=1;" vertex="1" parent="1">
          <mxGeometry x="-60" y="310" width="120" height="60" as="geometry" />
        </mxCell>
        <mxCell id="wu3eYTekcn9bL-O-NrDp-56" value="" style="edgeStyle=orthogonalEdgeStyle;rounded=0;orthogonalLoop=1;jettySize=auto;html=1;entryX=0.5;entryY=0;entryDx=0;entryDy=0;" edge="1" parent="1" source="wu3eYTekcn9bL-O-NrDp-48" target="wu3eYTekcn9bL-O-NrDp-53">
          <mxGeometry relative="1" as="geometry">
            <Array as="points">
              <mxPoint x="155" y="400" />
            </Array>
          </mxGeometry>
        </mxCell>
        <mxCell id="wu3eYTekcn9bL-O-NrDp-48" value="&lt;font style=&quot;vertical-align: inherit&quot;&gt;&lt;font style=&quot;vertical-align: inherit&quot;&gt;从客户列表中选择、添加收件人信息&lt;/font&gt;&lt;/font&gt;" style="rounded=0;whiteSpace=wrap;html=1;" vertex="1" parent="1">
          <mxGeometry x="95" y="310" width="120" height="60" as="geometry" />
        </mxCell>
        <mxCell id="wu3eYTekcn9bL-O-NrDp-49" value="" style="endArrow=classic;html=1;rounded=0;exitX=0.5;exitY=1;exitDx=0;exitDy=0;entryX=0.5;entryY=0;entryDx=0;entryDy=0;" edge="1" parent="1" source="wu3eYTekcn9bL-O-NrDp-37" target="wu3eYTekcn9bL-O-NrDp-45">
          <mxGeometry width="50" height="50" relative="1" as="geometry">
            <mxPoint x="390" y="290" as="sourcePoint" />
            <mxPoint x="440" y="240" as="targetPoint" />
          </mxGeometry>
        </mxCell>
        <mxCell id="wu3eYTekcn9bL-O-NrDp-51" value="" style="endArrow=classic;html=1;rounded=0;exitX=0.5;exitY=1;exitDx=0;exitDy=0;entryX=0.5;entryY=0;entryDx=0;entryDy=0;" edge="1" parent="1" source="wu3eYTekcn9bL-O-NrDp-43" target="wu3eYTekcn9bL-O-NrDp-47">
          <mxGeometry width="50" height="50" relative="1" as="geometry">
            <mxPoint x="390" y="290" as="sourcePoint" />
            <mxPoint x="440" y="240" as="targetPoint" />
          </mxGeometry>
        </mxCell>
        <mxCell id="wu3eYTekcn9bL-O-NrDp-52" value="" style="endArrow=classic;html=1;rounded=0;exitX=0.5;exitY=1;exitDx=0;exitDy=0;entryX=0.5;entryY=0;entryDx=0;entryDy=0;" edge="1" parent="1" source="wu3eYTekcn9bL-O-NrDp-45" target="wu3eYTekcn9bL-O-NrDp-48">
          <mxGeometry width="50" height="50" relative="1" as="geometry">
            <mxPoint x="390" y="290" as="sourcePoint" />
            <mxPoint x="440" y="240" as="targetPoint" />
          </mxGeometry>
        </mxCell>
        <mxCell id="wu3eYTekcn9bL-O-NrDp-58" value="" style="edgeStyle=orthogonalEdgeStyle;rounded=0;orthogonalLoop=1;jettySize=auto;html=1;" edge="1" parent="1" source="wu3eYTekcn9bL-O-NrDp-53" target="wu3eYTekcn9bL-O-NrDp-57">
          <mxGeometry relative="1" as="geometry" />
        </mxCell>
        <mxCell id="wu3eYTekcn9bL-O-NrDp-53" value="&lt;font style=&quot;vertical-align: inherit&quot;&gt;&lt;font style=&quot;vertical-align: inherit&quot;&gt;&lt;font style=&quot;vertical-align: inherit&quot;&gt;&lt;font style=&quot;vertical-align: inherit&quot;&gt;&lt;font style=&quot;vertical-align: inherit&quot;&gt;&lt;font style=&quot;vertical-align: inherit&quot;&gt;&lt;font style=&quot;vertical-align: inherit&quot;&gt;&lt;font style=&quot;vertical-align: inherit&quot;&gt;下单&lt;/font&gt;&lt;/font&gt;&lt;/font&gt;&lt;/font&gt;&lt;/font&gt;&lt;/font&gt;&lt;/font&gt;&lt;/font&gt;" style="rounded=0;whiteSpace=wrap;html=1;" vertex="1" parent="1">
          <mxGeometry x="90" y="400" width="120" height="60" as="geometry" />
        </mxCell>
        <mxCell id="wu3eYTekcn9bL-O-NrDp-54" value="" style="endArrow=classic;html=1;rounded=0;exitX=0.5;exitY=1;exitDx=0;exitDy=0;entryX=0;entryY=0.5;entryDx=0;entryDy=0;" edge="1" parent="1" source="wu3eYTekcn9bL-O-NrDp-47" target="wu3eYTekcn9bL-O-NrDp-53">
          <mxGeometry width="50" height="50" relative="1" as="geometry">
            <mxPoint x="390" y="390" as="sourcePoint" />
            <mxPoint x="440" y="340" as="targetPoint" />
          </mxGeometry>
        </mxCell>
        <mxCell id="wu3eYTekcn9bL-O-NrDp-55" value="" style="endArrow=classic;html=1;rounded=0;exitX=0.5;exitY=1;exitDx=0;exitDy=0;entryX=1;entryY=0.5;entryDx=0;entryDy=0;" edge="1" parent="1" source="wu3eYTekcn9bL-O-NrDp-46" target="wu3eYTekcn9bL-O-NrDp-53">
          <mxGeometry width="50" height="50" relative="1" as="geometry">
            <mxPoint x="390" y="390" as="sourcePoint" />
            <mxPoint x="440" y="340" as="targetPoint" />
          </mxGeometry>
        </mxCell>
        <mxCell id="wu3eYTekcn9bL-O-NrDp-57" value="&lt;font style=&quot;vertical-align: inherit&quot;&gt;&lt;font style=&quot;vertical-align: inherit&quot;&gt;&lt;font style=&quot;vertical-align: inherit&quot;&gt;&lt;font style=&quot;vertical-align: inherit&quot;&gt;查看订单/继续下单&lt;/font&gt;&lt;/font&gt;&lt;/font&gt;&lt;/font&gt;" style="rounded=0;whiteSpace=wrap;html=1;" vertex="1" parent="1">
          <mxGeometry x="90" y="500" width="120" height="60" as="geometry" />
        </mxCell>
        <mxCell id="wu3eYTekcn9bL-O-NrDp-61" value="" style="edgeStyle=orthogonalEdgeStyle;rounded=0;orthogonalLoop=1;jettySize=auto;html=1;" edge="1" parent="1" source="wu3eYTekcn9bL-O-NrDp-59" target="wu3eYTekcn9bL-O-NrDp-60">
          <mxGeometry relative="1" as="geometry" />
        </mxCell>
        <mxCell id="wu3eYTekcn9bL-O-NrDp-66" value="" style="edgeStyle=orthogonalEdgeStyle;rounded=0;orthogonalLoop=1;jettySize=auto;html=1;" edge="1" parent="1" source="wu3eYTekcn9bL-O-NrDp-59" target="wu3eYTekcn9bL-O-NrDp-62">
          <mxGeometry relative="1" as="geometry" />
        </mxCell>
        <mxCell id="wu3eYTekcn9bL-O-NrDp-59" value="&lt;font style=&quot;vertical-align: inherit&quot;&gt;&lt;font style=&quot;vertical-align: inherit&quot;&gt;&lt;font style=&quot;vertical-align: inherit&quot;&gt;&lt;font style=&quot;vertical-align: inherit&quot;&gt;订单中心&lt;/font&gt;&lt;/font&gt;&lt;/font&gt;&lt;/font&gt;" style="rounded=0;whiteSpace=wrap;html=1;" vertex="1" parent="1">
          <mxGeometry x="460" y="280" width="120" height="60" as="geometry" />
        </mxCell>
        <mxCell id="wu3eYTekcn9bL-O-NrDp-65" style="edgeStyle=orthogonalEdgeStyle;rounded=0;orthogonalLoop=1;jettySize=auto;html=1;entryX=0.5;entryY=0;entryDx=0;entryDy=0;" edge="1" parent="1" source="wu3eYTekcn9bL-O-NrDp-60" target="wu3eYTekcn9bL-O-NrDp-63">
          <mxGeometry relative="1" as="geometry" />
        </mxCell>
        <mxCell id="wu3eYTekcn9bL-O-NrDp-60" value="&lt;font style=&quot;vertical-align: inherit&quot;&gt;&lt;font style=&quot;vertical-align: inherit&quot;&gt;&lt;font style=&quot;vertical-align: inherit&quot;&gt;&lt;font style=&quot;vertical-align: inherit&quot;&gt;输入快递单号查询快递&lt;/font&gt;&lt;/font&gt;&lt;/font&gt;&lt;/font&gt;" style="rounded=0;whiteSpace=wrap;html=1;" vertex="1" parent="1">
          <mxGeometry x="380" y="380" width="120" height="60" as="geometry" />
        </mxCell>
        <mxCell id="wu3eYTekcn9bL-O-NrDp-64" value="" style="edgeStyle=orthogonalEdgeStyle;rounded=0;orthogonalLoop=1;jettySize=auto;html=1;" edge="1" parent="1" source="wu3eYTekcn9bL-O-NrDp-62" target="wu3eYTekcn9bL-O-NrDp-63">
          <mxGeometry relative="1" as="geometry" />
        </mxCell>
        <mxCell id="wu3eYTekcn9bL-O-NrDp-62" value="&lt;font style=&quot;vertical-align: inherit&quot;&gt;&lt;font style=&quot;vertical-align: inherit&quot;&gt;d待揽收、已寄出、已取消&lt;/font&gt;&lt;/font&gt;" style="rounded=0;whiteSpace=wrap;html=1;" vertex="1" parent="1">
          <mxGeometry x="550" y="380" width="120" height="60" as="geometry" />
        </mxCell>
        <mxCell id="wu3eYTekcn9bL-O-NrDp-63" value="&lt;font style=&quot;vertical-align: inherit&quot;&gt;&lt;font style=&quot;vertical-align: inherit&quot;&gt;查看订单详情&lt;/font&gt;&lt;/font&gt;" style="whiteSpace=wrap;html=1;rounded=0;" vertex="1" parent="1">
          <mxGeometry x="460" y="490" width="120" height="60" as="geometry" />
        </mxCell>
      </root>
    </mxGraphModel>
  </diagram>
</mxfile>
